Coordinates
version=1
nRows=5
nColumns=40
inDegrees=yes

Units are S.I. units (second, meters, Newtons, ...)
Angles are in degrees.

endheader
time	pelvis_tilt	pelvis_list	pelvis_rotation	pelvis_tx	pelvis_ty	pelvis_tz	hip_flexion_r	hip_adduction_r	hip_rotation_r	knee_angle_r	knee_angle_r_beta	ankle_angle_r	subtalar_angle_r	mtp_angle_r	hip_flexion_l	hip_adduction_l	hip_rotation_l	knee_angle_l	knee_angle_l_beta	ankle_angle_l	subtalar_angle_l	mtp_angle_l	lumbar_extension	lumbar_bending	lumbar_rotation	arm_flex_r	arm_add_r	arm_rot_r	elbow_flex_r	pro_sup_r	wrist_flex_r	wrist_dev_r	arm_flex_l	arm_add_l	arm_rot_l	elbow_flex_l	pro_sup_l	wrist_flex_l	wrist_dev_l
     28.56778571	     -2.46156738	     -4.49522831	     -5.38656933	      0.99061849	      0.93055049	      0.41625737	     24.40229678	     -0.44075828	    -10.47420273	     12.17961908	     12.17961908	      3.03936416	      7.26999307	      8.85665789	      4.22842622	     -5.43002299	    -10.56555082	     18.69692179	     18.69692179	     16.94803396	    -11.01945985	     -1.68168008	    -12.91768283	      3.02413030	      1.39942573	    -10.54422721	    -15.74571591	    -17.22370548	     27.85826925	     47.38591151	      0.00000000	      0.00000000	      8.59902884	    -16.50193415	     -3.16452880	     62.83640486	     46.76109708	      0.00000000	      0.00000000
     28.58057143	     -2.34949176	     -4.42850500	     -5.18460362	      0.99349040	      0.92943238	      0.41788885	     23.60873398	     -0.34205873	    -10.06147512	     12.70030373	     12.70030373	      1.51663248	      6.13523314	      3.70735259	      3.69425388	     -5.55162592	    -10.91389700	     19.04065609	     19.04065609	     18.09376952	     -9.91205880	     -0.85163009	    -12.63042991	      3.08325708	      1.53100494	    -10.71390746	    -15.32074262	    -17.68730160	     28.13114094	     47.33315329	      0.00000000	      0.00000000	      8.85402962	    -15.98848554	     -3.29500974	     61.30891578	     46.81051143	      0.00000000	      0.00000000
     28.59335714	     -2.16142995	     -4.32026151	     -4.95165441	      0.99639704	      0.92853374	      0.41940582	     23.00590243	     -0.43600911	     -9.88312885	     13.93044997	     13.93044997	      1.66021245	      5.60976989	      3.14339765	      2.92840763	     -5.49354250	    -10.81206196	     18.99727931	     18.99727931	     18.50621064	     -9.68840137	     -0.88214828	    -12.53484603	      3.10905782	      1.36810531	    -10.50263264	    -15.00460761	    -17.67970871	     28.27639474	     47.31811436	      0.00000000	      0.00000000	      8.42698089	    -15.81924337	     -3.17779553	     60.96296656	     46.79972037	      0.00000000	      0.00000000
     28.60614286	     -2.03250072	     -4.17145913	     -4.67610546	      0.99939466	      0.92749821	      0.42095696	     22.48291263	     -0.55346983	     -9.46862589	     15.14274136	     15.14274136	      1.74574900	      4.75868586	      2.31301591	      2.25886879	     -5.44119371	    -10.85158003	     19.01814415	     19.01814415	     19.03346027	     -9.25557651	     -0.84222365	    -12.30320389	      3.08152796	      1.11418561	    -10.20004657	    -14.66665798	    -17.61437372	     28.48378313	     47.29354106	      0.00000000	      0.00000000	      8.00017731	    -15.63301049	     -3.14745455	     60.27899524	     46.79288572	      0.00000000	      0.00000000
     28.61892857	     -1.89514746	     -4.19560818	     -4.34490510	      1.00246287	      0.92666929	      0.42247942	     21.73350035	     -0.50574600	     -9.32910406	     15.89008705	     15.89008705	      1.94742169	      4.38739860	      1.96503411	      1.63704987	     -5.56927983	    -10.60223596	     19.14825399	     19.14825399	     19.44134217	     -9.11501980	     -0.91691265	    -12.12415110	      3.33225406	      1.12608084	     -9.98520868	    -14.26651967	    -17.53247321	     28.58526853	     47.28038333	      0.00000000	      0.00000000	      7.46335914	    -15.19913239	     -3.02852823	     59.89589990	     46.77589426	      0.00000000	      0.00000000
